<svg id="Слой_1" data-name="Слой 1" xmlns="http://www.w3.org/2000/svg" viewBox="0 0 187.23 86.92"><defs><style>.cls-1{fill:#fff;}</style></defs><title>CNN</title><path class="cls-1" d="M200.69,147.07a6.23,6.23,0,0,1-4.61,6.17,5.84,5.84,0,0,1-1.61.22c-2.07,0-4.45-1-6.16-3.93l-17.49-30.15L155.26,92.57c-.84-1.44-2-2.12-3.08-1.82a2.1,2.1,0,0,0-1.49,2.14v54.18a6.22,6.22,0,0,1-4.54,6.14c-2.33.64-5.59,0-7.78-3.71-.08-.12-6.49-11.17-16.25-28L105.33,92.57c-.85-1.44-2-2.12-3.11-1.82a2.1,2.1,0,0,0-1.51,2.13v53.05a7,7,0,0,1-6.86,6.85H66.94a32.78,32.78,0,0,1,0-65.56h14V76.86h-14a43.14,43.14,0,0,0,0,86.28H94.09c10.37,0,17-6,17-17.22V121.31s17.34,29.88,18.14,31.23c11,18.7,31.81,11,31.81-5.13v-26.1s17.35,29.88,18.14,31.23c11,18.7,31.82,11,31.82-5.13l0-70.55H200.69Z" transform="translate(-23.8 -76.53)"/><path class="cls-1" d="M83.37,138.25H67a18.28,18.28,0,1,1,0-36.56H80.92V91.33h-14a28.64,28.64,0,1,0,0,57.28H93.85a2.9,2.9,0,0,0,2.72-2.71V92.85a6.25,6.25,0,0,1,4.56-6.13c2.33-.63,5.59,0,7.77,3.72l16.8,29c7.91,13.64,16.1,27.75,16.25,28,.84,1.44,2,2.12,3.11,1.82a2.11,2.11,0,0,0,1.51-2.14V92.88a6.23,6.23,0,0,1,4.55-6.13c2.31-.63,5.56,0,7.74,3.72l15.56,26.79c8.48,14.67,17.31,29.85,17.48,30.13.85,1.44,2,2.12,3.11,1.82a2.11,2.11,0,0,0,1.51-2.14V76.86H186.14v41.82S168.8,88.81,168,87.46c-11-18.71-31.81-11-31.81,5.12v26.1s-17.34-29.87-18.14-31.22c-11-18.71-31.82-11-31.82,5.12v42.85A2.84,2.84,0,0,1,83.37,138.25Z" transform="translate(-23.8 -76.53)"/></svg>